<svg data-v-fde0c5aa="" xmlns="http://www.w3.org/2000/svg" viewBox="0 0 300 300" class="iconLeft"><!----><defs data-v-fde0c5aa=""><!----></defs><rect data-v-fde0c5aa="" fill="transparent" x="0" y="0" width="300px" height="300px" class="logo-background-square"></rect><defs data-v-fde0c5aa=""><!----></defs><g data-v-fde0c5aa="" id="d9d4f2c5-85bb-4227-903e-5c12df4eb7a0" fill="#2C2525" transform="matrix(2.235124570475925,0,0,2.235124570475925,97.59583639401065,132.14135466058156)"><path d="M4.09 5.84Q5.98 5.84 6.97 6.70Q7.97 7.56 7.97 9.34L7.97 9.34L7.97 13.55L5.49 13.55L5.49 12.57Q4.91 13.68 3.25 13.68L3.25 13.68Q2.37 13.68 1.72 13.37Q1.08 13.06 0.75 12.54Q0.42 12.01 0.42 11.34L0.42 11.34Q0.42 10.26 1.25 9.67Q2.07 9.07 3.79 9.07L3.79 9.07L5.31 9.07Q5.24 7.87 3.70 7.87L3.70 7.87Q3.15 7.87 2.59 8.04Q2.03 8.22 1.64 8.53L1.64 8.53L0.74 6.72Q1.37 6.30 2.27 6.07Q3.18 5.84 4.09 5.84L4.09 5.84ZM3.99 12.00Q4.45 12.00 4.80 11.77Q5.15 11.55 5.31 11.12L5.31 11.12L5.31 10.46L4.16 10.46Q3.00 10.46 3.00 11.23L3.00 11.23Q3.00 11.58 3.26 11.79Q3.53 12.00 3.99 12.00L3.99 12.00ZM14.59 5.84Q16.00 5.84 16.86 6.68Q17.72 7.52 17.72 9.21L17.72 9.21L17.72 13.55L15.06 13.55L15.06 9.65Q15.06 8.09 13.82 8.09L13.82 8.09Q13.13 8.09 12.72 8.54Q12.31 8.99 12.31 9.88L12.31 9.88L12.31 13.55L9.65 13.55L9.65 5.96L12.18 5.96L12.18 6.79Q12.63 6.33 13.24 6.08Q13.86 5.84 14.59 5.84L14.59 5.84ZM24.71 5.96L27.37 5.96L27.37 13.55L24.84 13.55L24.84 12.74Q24.42 13.20 23.83 13.44Q23.24 13.68 22.58 13.68L22.58 13.68Q21.11 13.68 20.24 12.81Q19.36 11.94 19.36 10.21L19.36 10.21L19.36 5.96L22.02 5.96L22.02 9.77Q22.02 10.63 22.34 11.02Q22.67 11.41 23.28 11.41L23.28 11.41Q23.91 11.41 24.31 10.97Q24.71 10.53 24.71 9.62L24.71 9.62L24.71 5.96ZM34.02 5.84Q35.43 5.84 36.30 6.68Q37.16 7.52 37.16 9.21L37.16 9.21L37.16 13.55L34.50 13.55L34.50 9.65Q34.50 8.09 33.25 8.09L33.25 8.09Q32.56 8.09 32.15 8.54Q31.74 8.99 31.74 9.88L31.74 9.88L31.74 13.55L29.08 13.55L29.08 5.96L31.61 5.96L31.61 6.79Q32.06 6.33 32.68 6.08Q33.29 5.84 34.02 5.84L34.02 5.84ZM42.81 13.68Q41.55 13.68 40.56 13.17Q39.56 12.67 39.01 11.77Q38.46 10.88 38.46 9.74L38.46 9.74Q38.46 8.61 39.01 7.72Q39.56 6.83 40.56 6.33Q41.55 5.84 42.81 5.84L42.81 5.84Q44.10 5.84 45.04 6.39Q45.98 6.94 46.37 7.92L46.37 7.92L44.31 8.97Q43.79 7.95 42.80 7.95L42.80 7.95Q42.08 7.95 41.62 8.43Q41.15 8.90 41.15 9.74L41.15 9.74Q41.15 10.60 41.62 11.08Q42.08 11.56 42.80 11.56L42.80 11.56Q43.79 11.56 44.31 10.54L44.31 10.54L46.37 11.59Q45.98 12.57 45.04 13.13Q44.10 13.68 42.81 13.68L42.81 13.68ZM47.38 13.55L47.38 5.96L50.04 5.96L50.04 13.55L47.38 13.55ZM48.71 5.12Q47.98 5.12 47.53 4.72Q47.08 4.31 47.08 3.71L47.08 3.71Q47.08 3.11 47.53 2.70Q47.98 2.30 48.71 2.30L48.71 2.30Q49.43 2.30 49.88 2.68Q50.33 3.07 50.33 3.67L50.33 3.67Q50.33 4.30 49.88 4.71Q49.43 5.12 48.71 5.12L48.71 5.12ZM55.57 13.68Q54.35 13.68 53.37 13.17Q52.39 12.67 51.84 11.77Q51.28 10.88 51.28 9.74L51.28 9.74Q51.28 8.62 51.84 7.73Q52.39 6.83 53.36 6.33Q54.33 5.84 55.57 5.84L55.57 5.84Q56.80 5.84 57.78 6.33Q58.76 6.83 59.30 7.72Q59.85 8.61 59.85 9.74L59.85 9.74Q59.85 10.88 59.30 11.77Q58.76 12.67 57.78 13.17Q56.80 13.68 55.57 13.68L55.57 13.68ZM55.57 11.56Q56.27 11.56 56.71 11.08Q57.16 10.60 57.16 9.74L57.16 9.74Q57.16 8.90 56.71 8.43Q56.27 7.95 55.57 7.95L55.57 7.95Q54.87 7.95 54.42 8.43Q53.97 8.90 53.97 9.74L53.97 9.74Q53.97 10.60 54.42 11.08Q54.87 11.56 55.57 11.56L55.57 11.56ZM64.15 5.84Q66.04 5.84 67.03 6.70Q68.03 7.56 68.03 9.34L68.03 9.34L68.03 13.55L65.55 13.55L65.55 12.57Q64.97 13.68 63.31 13.68L63.31 13.68Q62.43 13.68 61.78 13.37Q61.14 13.06 60.81 12.54Q60.48 12.01 60.48 11.34L60.48 11.34Q60.48 10.26 61.31 9.67Q62.13 9.07 63.85 9.07L63.85 9.07L65.37 9.07Q65.30 7.87 63.76 7.87L63.76 7.87Q63.21 7.87 62.65 8.04Q62.09 8.22 61.70 8.53L61.70 8.53L60.80 6.72Q61.43 6.30 62.34 6.07Q63.24 5.84 64.15 5.84L64.15 5.84ZM64.05 12.00Q64.51 12.00 64.86 11.77Q65.21 11.55 65.37 11.12L65.37 11.12L65.37 10.46L64.22 10.46Q63.06 10.46 63.06 11.23L63.06 11.23Q63.06 11.58 63.32 11.79Q63.59 12.00 64.05 12.00L64.05 12.00ZM69.71 13.55L69.71 5.96L72.37 5.96L72.37 13.55L69.71 13.55ZM71.04 5.12Q70.31 5.12 69.86 4.72Q69.41 4.31 69.41 3.71L69.41 3.71Q69.41 3.11 69.86 2.70Q70.31 2.30 71.04 2.30L71.04 2.30Q71.76 2.30 72.21 2.68Q72.66 3.07 72.66 3.67L72.66 3.67Q72.66 4.30 72.21 4.71Q71.76 5.12 71.04 5.12L71.04 5.12Z"></path></g><defs data-v-fde0c5aa=""><!----></defs><g data-v-fde0c5aa="" id="d1d6907d-dda4-4ba8-b7b0-613ba06adc7f" stroke="none" fill="#7E0C0C" transform="matrix(0.7315471194325625,0,0,0.7315471194325625,27.618564166414643,115.30807512256096)"><style>.st3{fill:#1e120d}</style><path class="st3" d="M52.3 27.3c-.1-.3-.3-.5-.6-.6s-.5-.1-.8 0l-4.2 1.6c-.5.2-.8.8-.6 1.4l.5 1.2-24.5 17.4V48c-.2-.5-.8-.8-1.4-.6l-3.1 1.2c-.3.1-.5.3-.6.6-.1.3-.1.5 0 .8l4 10.8c.2.4.6.7 1 .7.1 0 .2 0 .4-.1l3.1-1.2c.3-.1.5-.3.6-.6.1-.3.1-.5 0-.8l-.1-.2 6.5-.6L38 72.8c.1.3.3.5.6.6.1.1.3.1.4.1.1 0 .3 0 .4-.1l7.7-2.9c.3-.1.5-.3.6-.6.1-.3.1-.5 0-.8l-4.6-12.2 12.7-1.2.5 1.2c.2.4.6.7 1 .7.1 0 .2 0 .4-.1l4.2-1.6c.3-.1.5-.3.6-.6.1-.3.1-.5 0-.8L52.3 27.3zM22.6 59l-3.3-8.8 1.1-.4.2.5 2.9 7.8.2.5-1.1.4zm22.8 9.9L39.6 71l-5-13.2 6.3-.6 4.5 11.7zM41.6 55l-8.5.8-7.8.8-2.3-6.2L47.4 33l7.8 20.7L41.6 55zm16.3.2l-.4-1-8.7-23.3-.4-1 2.2-.8 9.5 25.3-2.2.8zM59.4 32.1c-.4-.4-1.1-.3-1.5.1-.4.4-.3 1.1.1 1.5 1.8 1.5 3.1 3.4 3.9 5.5.8 2.1 1 4.4.7 6.7-.1.6.3 1.1.9 1.2h.2c.5 0 1-.4 1-.9.4-2.7.2-5.3-.8-7.8-.9-2.4-2.4-4.5-4.5-6.3zM63.8 27.2c-.4-.4-1.1-.3-1.5.1-.4.4-.3 1.1.1 1.5 2.7 2.3 4.6 5 5.8 8.1 1.2 3.1 1.5 6.4 1 9.9-.1.6.3 1.1.9 1.2h.2c.5 0 1-.4 1-.9.6-3.8.2-7.5-1.1-10.9-1.3-3.5-3.5-6.5-6.4-9zM77.3 34.3c-1.8-4.9-4.9-9.2-9-12.7-.4-.4-1.1-.3-1.5.1-.4.4-.3 1.1.1 1.5 3.9 3.3 6.7 7.3 8.4 11.8 1.7 4.6 2.2 9.4 1.4 14.4-.1.6.3 1.1.9 1.2h.2c.5 0 1-.4 1-.9.8-5.3.3-10.5-1.5-15.4z"></path></g><!----></svg>