<svg width="333" height="142" viewBox="0 0 333 142" fill="none" xmlns="http://www.w3.org/2000/svg">
<path d="M111.092 65.5889C114.699 65.5889 117.447 66.4086 119.336 68.0479C121.245 69.6873 122.199 72.2035 122.199 75.5966V87.6345H115.1V84.8323C113.993 86.9482 111.855 88.0062 108.687 88.0062C107.008 88.0062 105.548 87.7107 104.307 87.1198C103.086 86.5289 102.16 85.7378 101.531 84.7465C100.901 83.7362 100.586 82.5925 100.586 81.3153C100.586 79.2566 101.378 77.6649 102.962 76.5402C104.527 75.3965 106.951 74.8246 110.233 74.8246H114.584C114.451 72.5371 112.915 71.3934 109.976 71.3934C108.926 71.3934 107.867 71.5554 106.798 71.8795C105.729 72.2226 104.823 72.6896 104.078 73.2805L101.502 68.1051C102.704 67.3045 104.164 66.685 105.882 66.2465C107.619 65.8081 109.355 65.5889 111.092 65.5889ZM110.806 83.2025C111.684 83.2025 112.457 82.9833 113.124 82.5448C113.792 82.1255 114.279 81.5059 114.584 80.6863V78.7991H111.292C109.079 78.7991 107.972 79.533 107.972 81.0008C107.972 81.668 108.22 82.2017 108.716 82.602C109.231 83.0023 109.928 83.2025 110.806 83.2025ZM141.15 65.5889C143.841 65.5889 146.007 66.3895 147.648 67.9907C149.29 69.592 150.11 72.0034 150.11 75.2249V87.6345H142.496V76.483C142.496 73.5093 141.312 72.0224 138.946 72.0224C137.629 72.0224 136.579 72.4513 135.797 73.3091C135.014 74.1669 134.623 75.4441 134.623 77.1407V87.6345H127.008V65.932H134.251V68.3053C135.11 67.4284 136.121 66.7517 137.285 66.2751C138.469 65.8176 139.757 65.5889 141.15 65.5889ZM170.12 65.932H177.735V87.6345H170.493V85.3184C169.691 86.1953 168.727 86.8624 167.601 87.3199C166.475 87.7774 165.282 88.0062 164.023 88.0062C161.217 88.0062 158.985 87.177 157.324 85.5186C155.645 83.8601 154.805 81.382 154.805 78.0842V65.932H162.42V76.8261C162.42 78.4655 162.725 79.6569 163.336 80.4003C163.966 81.1437 164.863 81.5155 166.027 81.5155C167.229 81.5155 168.212 81.0961 168.975 80.2573C169.739 79.4186 170.12 78.1319 170.12 76.3972V65.932ZM196.772 65.5889C199.463 65.5889 201.639 66.3895 203.299 67.9907C204.94 69.592 205.761 72.0034 205.761 75.2249V87.6345H198.146V76.483C198.146 73.5093 196.953 72.0224 194.568 72.0224C193.251 72.0224 192.201 72.4513 191.419 73.3091C190.636 74.1669 190.245 75.4441 190.245 77.1407V87.6345H182.63V65.932H189.873V68.3053C190.732 67.4284 191.753 66.7517 192.936 66.2751C194.1 65.8176 195.379 65.5889 196.772 65.5889ZM221.935 88.0062C219.53 88.0062 217.383 87.5201 215.494 86.5479C213.585 85.5948 212.106 84.2604 211.057 82.5448C210.007 80.8483 209.482 78.9135 209.482 76.7403C209.482 74.5863 210.007 72.661 211.057 70.9645C212.106 69.2679 213.585 67.9431 215.494 66.99C217.383 66.0559 219.53 65.5889 221.935 65.5889C224.397 65.5889 226.525 66.1131 228.319 67.1615C230.113 68.21 231.382 69.6682 232.126 71.5363L226.229 74.5387C225.237 72.5943 223.796 71.6221 221.906 71.6221C220.532 71.6221 219.406 72.0796 218.528 72.9946C217.631 73.8905 217.183 75.1391 217.183 76.7403C217.183 78.3797 217.631 79.6569 218.528 80.5719C219.406 81.4869 220.532 81.9444 221.906 81.9444C223.796 81.9444 225.237 80.9722 226.229 79.0278L232.126 82.0301C231.382 83.8983 230.113 85.3661 228.319 86.4335C226.525 87.482 224.397 88.0062 221.935 88.0062ZM235.017 87.6345V65.932H242.632V87.6345H235.017ZM238.825 63.5302C237.432 63.5302 236.306 63.1489 235.447 62.3864C234.588 61.6049 234.159 60.6422 234.159 59.4985C234.159 58.3547 234.588 57.3921 235.447 56.6105C236.306 55.848 237.432 55.4668 238.825 55.4668C240.199 55.4668 241.315 55.829 242.174 56.5533C243.033 57.2968 243.462 58.2404 243.462 59.3841C243.462 60.585 243.033 61.5763 242.174 62.3578C241.315 63.1394 240.199 63.5302 238.825 63.5302ZM258.463 88.0062C256.134 88.0062 254.035 87.5201 252.165 86.5479C250.294 85.5948 248.835 84.2604 247.785 82.5448C246.716 80.8483 246.182 78.9135 246.182 76.7403C246.182 74.6054 246.716 72.6896 247.785 70.9931C248.835 69.2775 250.285 67.9431 252.136 66.99C253.987 66.0559 256.096 65.5889 258.463 65.5889C260.81 65.5889 262.919 66.0559 264.789 66.99C266.659 67.9431 268.11 69.2679 269.14 70.9645C270.19 72.661 270.715 74.5863 270.715 76.7403C270.715 78.9135 270.19 80.8483 269.14 82.5448C268.11 84.2604 266.659 85.5948 264.789 86.5479C262.919 87.5201 260.81 88.0062 258.463 88.0062ZM258.463 81.9444C259.799 81.9444 260.886 81.4869 261.726 80.5719C262.585 79.6569 263.014 78.3797 263.014 76.7403C263.014 75.1391 262.585 73.8905 261.726 72.9946C260.886 72.0796 259.799 71.6221 258.463 71.6221C257.127 71.6221 256.029 72.0796 255.171 72.9946C254.312 73.8905 253.882 75.1391 253.882 76.7403C253.882 78.3797 254.312 79.6569 255.171 80.5719C256.029 81.4869 257.127 81.9444 258.463 81.9444ZM283.024 65.5889C286.631 65.5889 289.38 66.4086 291.269 68.0479C293.177 69.6873 294.132 72.2035 294.132 75.5966V87.6345H287.032V84.8323C285.925 86.9482 283.788 88.0062 280.62 88.0062C278.94 88.0062 277.48 87.7107 276.24 87.1198C275.018 86.5289 274.093 85.7378 273.463 84.7465C272.833 83.7362 272.518 82.5925 272.518 81.3153C272.518 79.2566 273.31 77.6649 274.894 76.5402C276.459 75.3965 278.883 74.8246 282.166 74.8246H286.517C286.383 72.5371 284.847 71.3934 281.908 71.3934C280.858 71.3934 279.799 71.5554 278.73 71.8795C277.662 72.2226 276.755 72.6896 276.011 73.2805L273.434 68.1051C274.637 67.3045 276.106 66.685 277.843 66.2465C279.561 65.8081 281.288 65.5889 283.024 65.5889ZM282.738 83.2025C283.616 83.2025 284.389 82.9833 285.057 82.5448C285.725 82.1255 286.212 81.5059 286.517 80.6863V78.7991H283.225C281.011 78.7991 279.904 79.533 279.904 81.0008C279.904 81.668 280.152 82.2017 280.648 82.602C281.164 83.0023 281.86 83.2025 282.738 83.2025ZM298.941 87.6345V65.932H306.556V87.6345H298.941ZM302.748 63.5302C301.355 63.5302 300.229 63.1489 299.37 62.3864C298.512 61.6049 298.082 60.6422 298.082 59.4985C298.082 58.3547 298.512 57.3921 299.37 56.6105C300.229 55.848 301.355 55.4668 302.748 55.4668C304.122 55.4668 305.239 55.829 306.098 56.5533C306.956 57.2968 307.386 58.2404 307.386 59.3841C307.386 60.585 306.956 61.5763 306.098 62.3578C305.239 63.1394 304.122 63.5302 302.748 63.5302Z" fill="white"/>
<path d="M58.7615 52.9067C58.6679 52.6259 58.4805 52.4387 58.1994 52.3451C57.9183 52.2516 57.7309 52.2516 57.4498 52.3451L53.5147 53.8425C53.0462 54.0297 52.7651 54.5912 52.9525 55.1527L53.421 56.2757L30.4659 72.5596V72.2788C30.2785 71.8109 29.7163 71.5301 29.1541 71.7173L26.2496 72.8403C25.9685 72.9339 25.7812 73.1211 25.6875 73.4018C25.5938 73.6826 25.5938 73.8698 25.6875 74.1505L29.4352 84.2577C29.6226 84.6321 29.9974 84.9128 30.3722 84.9128C30.4659 84.9128 30.5596 84.9128 30.7469 84.8192L33.6515 83.6962C33.9326 83.6026 34.1199 83.4155 34.2136 83.1347C34.3073 82.8539 34.3073 82.6668 34.2136 82.386L34.1199 82.1988L40.2101 81.6373L45.3633 95.488C45.457 95.7687 45.6443 95.9559 45.9254 96.0495C46.0191 96.1431 46.2065 96.1431 46.3002 96.1431C46.3939 96.1431 46.5813 96.1431 46.675 96.0495L53.8894 93.3355C54.1705 93.2419 54.3579 93.0547 54.4516 92.774C54.5453 92.4932 54.5453 92.3061 54.4516 92.0253L50.1417 80.6079L62.0408 79.4849L62.5093 80.6079C62.6967 80.9822 63.0715 81.263 63.4463 81.263C63.54 81.263 63.6337 81.263 63.821 81.1694L67.7562 79.672C68.0373 79.5785 68.2247 79.3913 68.3184 79.1105C68.4121 78.8298 68.4121 78.6426 68.3184 78.3619L58.7615 52.9067ZM30.9343 82.5732L27.8424 74.3377L28.8731 73.9633L29.0605 74.4313L31.7776 81.7309L31.965 82.1988L30.9343 82.5732ZM52.2966 91.8381L46.8624 93.8034L42.1777 81.4502L48.0804 80.8887L52.2966 91.8381ZM48.7363 78.8298L40.7722 79.5785L33.4641 80.3271L31.3091 74.5249L54.1705 58.241L61.4787 77.6132L48.7363 78.8298ZM64.0084 79.017L63.6337 78.0811L55.4822 56.2757L55.1075 55.3399L57.1687 54.5912L66.0697 78.2683L64.0084 79.017ZM65.4138 57.3987C65.0391 57.0244 64.3832 57.118 64.0084 57.4923C63.6337 57.8667 63.7273 58.5218 64.1021 58.8961C65.7886 60.2999 67.0066 62.078 67.7562 64.0433C68.5058 66.0086 68.6931 68.1611 68.4121 70.3135C68.3184 70.875 68.6931 71.343 69.2553 71.4365H69.4427C69.9112 71.4365 70.3796 71.0622 70.3796 70.5943C70.7544 68.0675 70.567 65.6343 69.6301 63.2946C68.7868 61.0486 67.3814 59.0833 65.4138 57.3987ZM69.5364 52.8131C69.1616 52.4387 68.5058 52.5323 68.131 52.9067C67.7562 53.281 67.8499 53.9361 68.2247 54.3104C70.7544 56.4629 72.5346 58.9897 73.6589 61.8908C74.7833 64.792 75.0644 67.8803 74.5959 71.1558C74.5022 71.7173 74.877 72.1852 75.4391 72.2788H75.6265C76.095 72.2788 76.5635 71.9045 76.5635 71.4365C77.1256 67.8803 76.7508 64.4176 75.5328 61.2357C74.3148 57.9603 72.2535 55.1527 69.5364 52.8131ZM82.1851 59.4576C80.4986 54.8719 77.5941 50.8478 73.7526 47.5723C73.3779 47.1979 72.722 47.2915 72.3472 47.6659C71.9724 48.0402 72.0661 48.6953 72.4409 49.0697C76.095 52.158 78.7184 55.9014 80.3112 60.1127C81.904 64.4176 82.3725 68.9097 81.623 73.589C81.5293 74.1505 81.904 74.6184 82.4662 74.712H82.6536C83.1221 74.712 83.5905 74.3377 83.5905 73.8698C84.3401 68.9097 83.8716 64.0433 82.1851 59.4576Z" fill="white"/>
</svg>
